<svg xmlns="http://www.w3.org/2000/svg" viewBox="0 0 375.01 512"><title>Asset 1</title><g id="Layer_2" data-name="Layer 2"><g id="Layer_1-2" data-name="Layer 1"><path d="M188,222a7.5,7.5,0,0,0-7.5,7.5v12.79l-4.64-4.78a7.5,7.5,0,0,0-10.76,10.45l17.52,18a7.51,7.51,0,0,0,5.39,2.28h.05a7.54,7.54,0,0,0,5.41-2.36l17-18a7.5,7.5,0,1,0-10.92-10.28l-4,4.28V229.45A7.51,7.51,0,0,0,188,222Z"/><path d="M286.88,435.37H89.19a18,18,0,0,0-18,18V494a18,18,0,0,0,18,18h54.65a7.5,7.5,0,1,0,0-15H89.19a3,3,0,0,1-3-3V453.34a3,3,0,0,1,3-3H286.88a3,3,0,0,1,3,3V494a3,3,0,0,1-3,3H178.59a7.5,7.5,0,0,0,0,15H286.88a18,18,0,0,0,18-18V453.34a18,18,0,0,0-18-18Z"/><path d="M286.88,135.4H141.25a7.5,7.5,0,0,0,0,15H286.88a3,3,0,0,1,3,3v40.69a3,3,0,0,1-3,3H89.19a3,3,0,0,1-3-3V153.37a3,3,0,0,1,3-3H106.5a7.5,7.5,0,0,0,0-15H89.19a18,18,0,0,0-18,18v40.69a18,18,0,0,0,18,18H286.88a18,18,0,0,0,18-18V153.37A18,18,0,0,0,286.88,135.4Z"/><path d="M89.35,327.18A17.89,17.89,0,0,0,100.67,344l72.89,29a39.07,39.07,0,0,0,28.95,0l72.89-29a18,18,0,0,0-.14-33.45l-27.43-10.66a7.5,7.5,0,1,0-5.44,14l27.43,10.66a3,3,0,0,1,0,5.53l-72.89,29a24,24,0,0,1-17.85,0l-72.89-29a3,3,0,0,1,0-5.53L179.3,296.1a24,24,0,0,1,17.47,0l13.4,5.21a7.5,7.5,0,0,0,5.43-14l-13.4-5.21a39,39,0,0,0-28.33,0l-73.06,28.39a17.86,17.86,0,0,0-11.46,16.67Z"/><path d="M188,80.71a7.5,7.5,0,0,0-7.5,7.5V101l-4.64-4.78a7.5,7.5,0,1,0-10.76,10.45l17.52,18A7.51,7.51,0,0,0,188,127h.05a7.54,7.54,0,0,0,5.41-2.36l17-18.06A7.5,7.5,0,0,0,199.57,96.3l-4,4.28V88.21a7.51,7.51,0,0,0-7.51-7.5Z"/><path d="M357,320.17H320.78a7.5,7.5,0,0,0,0,15H357a3,3,0,0,1,3,3V463.21a3,3,0,0,1-3,3H338.55l4.51-4.37a7.5,7.5,0,1,0-10.45-10.76l-18.05,17.52a7.49,7.49,0,0,0,.08,10.84l18.05,17A7.5,7.5,0,1,0,343,485.48l-4.57-4.29H357a18,18,0,0,0,18-18V338.14a18,18,0,0,0-18-18Z"/><path d="M31.79,202.7a7.51,7.51,0,0,0,10.61.15l18.05-17.52a7.49,7.49,0,0,0-.08-10.84l-18.06-17A7.5,7.5,0,0,0,32,168.42l4.57,4.3H18a18,18,0,0,0-18,18V315.76a18,18,0,0,0,18,18H54.23a7.5,7.5,0,1,0,0-15H18a3,3,0,0,1-3-3V190.69a3,3,0,0,1,3-3H36.46L32,192.09a7.51,7.51,0,0,0-.16,10.61Z"/><path d="M286.88,0H89.19a18,18,0,0,0-18,18V58.66a18,18,0,0,0,18,18H286.88a18,18,0,0,0,18-18V18a18,18,0,0,0-18-18Zm3,58.66a3,3,0,0,1-3,3H89.19a3,3,0,0,1-3-3V18a3,3,0,0,1,3-3H286.88a3,3,0,0,1,3,3Z"/></g></g></svg>