<svg xmlns="http://www.w3.org/2000/svg" viewBox="0 0 496 496"><title>api</title><g id="Layer_2" data-name="Layer 2"><g id="Layer_1-2" data-name="Layer 1"><path d="M160,192V112a32,32,0,0,0-64,0v80h16V160h32v32Zm-48-48V112a16,16,0,0,1,32,0v32Z"/><path d="M208,144a32,32,0,0,0,0-64H176V192h16V144ZM192,96h16a16,16,0,0,1,0,32H192Z"/><path d="M248,176v16h48V176H280V96h16V80H248V96h16v80Z"/><path d="M496,334.34V273.66l-21.08-5a126.92,126.92,0,0,0-11.05-26.65l11.4-18.42-42.9-42.9L414,192.13a128.37,128.37,0,0,0-14.86-6.9A47.86,47.86,0,0,0,360,128.72c0-.25,0-.48,0-.72a80.09,80.09,0,0,0-80-80,79,79,0,0,0-29.16,5.53A104.3,104.3,0,0,0,160,0C105.18,0,60.25,42.66,56.38,96.5A64,64,0,0,0,64,224H80v91.06l-32,16V384H64V340.94l32-16V208H64a48,48,0,0,1,0-96,47.47,47.47,0,0,1,13.71,2l4.57-15.33a64.08,64.08,0,0,0-9.91-2A87.91,87.91,0,0,1,239.9,67.31l3.5,7.59,7.43-3.81A63.16,63.16,0,0,1,280,64a64.07,64.07,0,0,1,64,64c0,.23,0,.46,0,.7a47.55,47.55,0,0,0-20.51,8.71L333,150.26A32,32,0,1,1,352,208H144V324.94l32,16V384h16V331.06l-32-16V224h74.07l6.55,17.18a126.59,126.59,0,0,0-11.54,27.52l-21.08,5v60.68l21.08,5a126.92,126.92,0,0,0,11,26.65l-11.4,18.42,42.9,42.9,18.42-11.4a126.92,126.92,0,0,0,26.65,11.05l5,21.08h60.68l5-21.07A127.45,127.45,0,0,0,414,415.88l18.42,11.4,42.9-42.9L463.87,366a127,127,0,0,0,11.05-26.66Zm-34.18-8.4-1.16,4.76a111.17,111.17,0,0,1-13,31.24l-2.54,4.19L455,382l-25,25-15.89-9.83-4.19,2.54a111.08,111.08,0,0,1-31.23,13l-4.76,1.17L369.66,432H334.34l-4.28-18.18-4.76-1.16a111.17,111.17,0,0,1-31.24-13l-4.19-2.54L274,407l-25-25,9.83-15.89-2.54-4.19a111.25,111.25,0,0,1-13-31.23l-1.17-4.76L224,321.66V286.34l18.18-4.28,1.16-4.76a111.22,111.22,0,0,1,13-31.24l2-3.33L251.19,224h47.86a96,96,0,1,0,83.44-10.95,48.56,48.56,0,0,0,10.88-12.82,111.23,111.23,0,0,1,16.57,8.07l4.19,2.54L430,201l25,25-9.83,15.89,2.54,4.19a111.25,111.25,0,0,1,12.95,31.23l1.17,4.76L480,286.34v35.32ZM352,224a80,80,0,1,1-80,80A80.09,80.09,0,0,1,352,224Z"/><path d="M352,368a64,64,0,1,0-64-64A64.07,64.07,0,0,0,352,368Zm0-112a48,48,0,1,1-48,48A48.05,48.05,0,0,1,352,256Z"/><path d="M48,400H64v16H48Z"/><path d="M176,400h16v16H176Z"/><path d="M64,449.47V432H48v17.47a24,24,0,1,0,16,0ZM56,480a8,8,0,1,1,8-8A8,8,0,0,1,56,480Z"/><path d="M192,449.47V432H176v17.47a24,24,0,1,0,16,0ZM184,480a8,8,0,1,1,8-8A8,8,0,0,1,184,480Z"/><path d="M128,393.47V304H112v89.47a24,24,0,1,0,16,0ZM120,424a8,8,0,1,1,8-8A8,8,0,0,1,120,424Z"/><path d="M112,208h16v16H112Z"/><path d="M112,240h16v16H112Z"/><path d="M112,272h16v16H112Z"/></g></g></svg>