<svg xmlns="http://www.w3.org/2000/svg" viewBox="0 0 350 568"><title>backend</title><g id="Layer_2" data-name="Layer 2"><g id="Layer_1-2" data-name="Layer 1"><path d="M131.5,284c-9.1,0-16.5,6.28-16.5,14s7.4,14,16.5,14,16.5-6.28,16.5-14-7.4-14-16.5-14Zm0,19.06c-3.29,0-6-2.27-6-5.06s2.68-5.06,6-5.06,6,2.27,6,5.06S134.79,303.06,131.5,303.06Z"/><path d="M331,265H19c-10.46,0-19,7.37-19,16.43V479.25c0,9.06,8.52,16.43,19,16.43h33.4a4.07,4.07,0,0,0,.42,5.93l24.88,21.53a85.78,85.78,0,0,0-4.88,10.2H37.62c-2.86,0-5.17,2-5.17,4.48v25.7c0,2.47,2.31,4.48,5.17,4.48H139.79c2.86,0,5.18-2,5.18-4.48,0-13.68,12.85-24.8,28.65-24.8s28.65,11.12,28.65,24.8c0,2.47,2.31,4.48,5.17,4.48H309.61c2.86,0,5.18-2,5.18-4.48v-25.7c0-2.48-2.32-4.48-5.18-4.48H274.44a84.33,84.33,0,0,0-4.89-10.2l24.88-21.53a4.05,4.05,0,0,0,.42-5.93H331c10.47,0,19-7.37,19-16.43V368.37c0-2.48-2.32-4.49-5.18-4.49s-5.18,2-5.18,4.49V479.25c0,4.12-3.87,7.47-8.63,7.47H284.56L254,460.3V429.65c0-2.48-2.32-4.49-5.17-4.49h-9.32V397.54l7.3-5.84a4.09,4.09,0,0,0,1.44-4.62l-12.43-34.66a5.15,5.15,0,0,0-4.94-3.15H217.11a5.17,5.17,0,0,0-5,3.15l-12.42,34.66a4.09,4.09,0,0,0,1.43,4.62l7.31,5.84v27.62h-9.32c-2.86,0-5.18,2-5.18,4.49V441.3H153.25v-6.81l19.89-17.21a4.2,4.2,0,0,0,1.51-3.17V377.35a4.18,4.18,0,0,0-1.54-3.18L145.5,350.56a5.8,5.8,0,0,0-5.63-.95,4.53,4.53,0,0,0-3.19,4.14V393.7L123.22,401l-13.46-7.34v-2.55c0-2.48-2.32-4.48-5.18-4.48s-5.17,2-5.17,4.48v5a4.37,4.37,0,0,0,2.42,3.79l18.63,10.16a5.86,5.86,0,0,0,5.52,0L144.62,400a4.37,4.37,0,0,0,2.42-3.79V364.47l17.26,14.76v33l-19.89,17.21a4.23,4.23,0,0,0-1.51,3.18v8.75a4.7,4.7,0,0,0-4.14,4.39v30.45A116.11,116.11,0,0,0,127,480.46l-23.43-20.29V432.64a4.24,4.24,0,0,0-1.52-3.18L82.15,412.25v-33l17.26-14.76v5.69c0,2.47,2.31,4.48,5.17,4.48s5.18-2,5.18-4.48V353.75a4.52,4.52,0,0,0-3.18-4.14,5.81,5.81,0,0,0-5.64.95L73.33,374.17a4.21,4.21,0,0,0-1.54,3.18v36.76a4.21,4.21,0,0,0,1.52,3.17l19.88,17.21V460.3L62.68,486.72H19c-4.76,0-8.62-3.35-8.62-7.47V330.14H339.64v17.34c0,2.48,2.32,4.48,5.18,4.48s5.18-2,5.18-4.48V281.43c0-9.06-8.52-16.43-19-16.43ZM217.17,392.29,210.6,387l10.33-28.81h6.17L237.43,387l-6.57,5.25a4.24,4.24,0,0,0-1.67,3.29v29.59H218.84V395.58a4.24,4.24,0,0,0-1.67-3.29Zm26.52,41.84v26.05l-23.43,20.28a119.5,119.5,0,0,0-11.78-4.23V445.79a4.71,4.71,0,0,0-4.14-4.4v-7.26ZM128.42,489.89a104.87,104.87,0,0,1,17-6.12,4.6,4.6,0,0,0,3.66-4.28V450.27h49v29.22a4.6,4.6,0,0,0,3.66,4.28,104.87,104.87,0,0,1,17,6.12,5.78,5.78,0,0,0,6.1-.79l23.87-20.67,30,25.94h0l4.69,4.06-23.87,20.67a4,4,0,0,0-.91,5.28,77.22,77.22,0,0,1,7.06,14.74,5.16,5.16,0,0,0,4.95,3.17h33.76V559H251.8c-2.68-35.31-36.72-63.34-78.18-63.34a88,88,0,0,0-31.85,5.84c-2.62,1-3.79,3.65-2.63,5.92a5.54,5.54,0,0,0,6.84,2.27,76.52,76.52,0,0,1,27.64-5.07c35.75,0,65.15,24,67.8,54.38H212.28c-2.54-16.5-18.91-29.28-38.66-29.28S137.5,542.53,135,559H105.81c1.26-14.71,8.71-28.24,21.31-38.46a4.08,4.08,0,0,0,.23-6.34A5.76,5.76,0,0,0,120,514c-14.48,11.75-23.27,28-24.59,45H42.8V542.3H76.55a5.16,5.16,0,0,0,5-3.17,77.22,77.22,0,0,1,7.06-14.74,4,4,0,0,0-.91-5.28L63.79,498.44l4.69-4.06h0l30-25.94,23.87,20.67a5.78,5.78,0,0,0,6.1.79ZM10.36,321.18V281.43c0-4.12,3.87-7.47,8.62-7.47H331c4.75,0,8.62,3.36,8.62,7.47v39.75Z"/><path d="M160,131c3.87,0,7-2.69,7-6s-3.13-6-7-6-7,2.69-7,6S156.13,131,160,131Z"/><path d="M179.1,130h26.8c2.82,0,5.1-2,5.1-4.5s-2.28-4.5-5.1-4.5H179.1c-2.82,0-5.1,2-5.1,4.5S176.28,130,179.1,130Z"/><path d="M139.51,259.36a5.62,5.62,0,0,0,2.64.64,5.34,5.34,0,0,0,4.43-2.17L163,234.17l16.42,23.66a5.35,5.35,0,0,0,4.43,2.17,5.62,5.62,0,0,0,2.64-.64,4.13,4.13,0,0,0,1.77-6.12L169,225.5l19.24-27.74a4.13,4.13,0,0,0-1.77-6.12,5.61,5.61,0,0,0-7.07,1.53L163,216.83l-16.42-23.66a5.61,5.61,0,0,0-7.07-1.53,4.13,4.13,0,0,0-1.77,6.12L157,225.5l-19.24,27.74a4.13,4.13,0,0,0,1.77,6.12Z"/><path d="M114.14,326c-2.84,0-5.14,2-5.14,4.47v24.06c0,2.47,2.3,4.47,5.14,4.47h27.72c2.84,0,5.14-2,5.14-4.47V330.47c0-2.47-2.3-4.47-5.14-4.47Zm22.57,24.07H119.29V334.93h17.42Z"/><path d="M192.86,326H165.14c-2.84,0-5.14,2-5.14,4.47v24.06c0,2.47,2.3,4.47,5.14,4.47h27.72c2.84,0,5.14-2,5.14-4.47V330.47C198,328,195.7,326,192.86,326Zm-5.15,24.07H170.29V334.93h17.42Z"/><path d="M281,384.67a3.93,3.93,0,0,0-.22-1.29V196.43c0-2.45-2.3-4.43-5.13-4.43s-5.13,2-5.13,4.43v183.8H87.26V320.55c0-2.45-2.29-4.43-5.13-4.43s-5.13,2-5.13,4.43v82C77,405,79.3,407,82.13,407H275.65c2.83,0,5.13-2,5.13-4.43V386A3.91,3.91,0,0,0,281,384.67ZM87.26,398.14v-9H270.52v9Z"/><path d="M77.05,299.78c0,2.45,2.3,4.44,5.14,4.44s5.13-2,5.13-4.44V278.07h73.2L193.6,306.7a5.57,5.57,0,0,0,3.63,1.3,5.79,5.79,0,0,0,2-.34,4.49,4.49,0,0,0,3.17-4.1V278.08h1.78c10.46,0,19-7.37,19-16.42V189.84c0-9.05-8.51-16.41-19-16.41H140.34c-2.84,0-5.14,2-5.14,4.44s2.3,4.44,5.14,4.44h63.81c4.8,0,8.7,3.38,8.7,7.53v71.82c0,4.15-3.9,7.53-8.7,7.53h-6.92c-2.83,0-5.13,2-5.13,4.44v19.2l-25.82-22.34a5.54,5.54,0,0,0-3.63-1.3H52c-4.8,0-8.7-3.38-8.7-7.53V189.84c0-4.15,3.9-7.53,8.7-7.53h64.46c2.83,0,5.13-2,5.13-4.44s-2.3-4.44-5.13-4.44H87.32V130.84h39.6l5,9.53c3.07,5.85,9.85,9.62,17.27,9.62h59.65c7.42,0,14.2-3.77,17.27-9.62l5-9.53h39.6v44.54c0,2.45,2.3,4.44,5.13,4.44s5.14-2,5.14-4.44V108.44c0-2.45-2.3-4.44-5.14-4.44H82.19c-2.84,0-5.14,2-5.14,4.44v65H52c-10.46,0-19,7.36-19,16.41v71.82c0,9,8.51,16.41,19,16.41H77.05ZM270.73,112.89V122H227.82a5.21,5.21,0,0,0-4.67,2.6l-6.38,12.14a8.89,8.89,0,0,1-7.92,4.41H149.2a8.89,8.89,0,0,1-7.92-4.41l-6.38-12.14a5.21,5.21,0,0,0-4.67-2.6H87.32v-9.07Z"/><path d="M176.18,131c-2.84,0-5.15,2-5.15,4.54v7.74l-3.18-2.9a5.67,5.67,0,0,0-7.29-.09,4.15,4.15,0,0,0-.1,6.41l12,10.92a5.51,5.51,0,0,0,3.69,1.38h0a5.45,5.45,0,0,0,3.71-1.43l11.67-10.92a4.16,4.16,0,0,0-.22-6.41,5.66,5.66,0,0,0-7.28.19L181.33,143v-7.48c0-2.51-2.31-4.54-5.15-4.54Z"/><path d="M243.69,258H108.31C101.52,258,96,262.73,96,268.55v23.9c0,5.82,5.52,10.55,12.31,10.55h37.42c2.84,0,5.14-2,5.14-4.4s-2.3-4.41-5.14-4.41H108.31a1.91,1.91,0,0,1-2-1.74v-23.9a1.91,1.91,0,0,1,2-1.74H243.69a1.91,1.91,0,0,1,2,1.74v23.9a1.91,1.91,0,0,1-2,1.74H169.53c-2.84,0-5.14,2-5.14,4.41s2.3,4.4,5.14,4.4h74.16c6.79,0,12.31-4.73,12.31-10.55v-23.9c0-5.82-5.52-10.55-12.31-10.55Z"/><path d="M243.69,80H144c-2.83,0-5.13,2-5.13,4.4s2.3,4.41,5.13,4.41h99.73a1.91,1.91,0,0,1,2,1.74v23.9a1.91,1.91,0,0,1-2,1.74H108.31a1.91,1.91,0,0,1-2-1.74V90.55a1.91,1.91,0,0,1,2-1.74h11.86c2.83,0,5.13-2,5.13-4.41S123,80,120.17,80H108.31C101.52,80,96,84.73,96,90.55v23.9c0,5.82,5.52,10.55,12.31,10.55H243.69c6.79,0,12.31-4.74,12.31-10.55V90.55C256,84.73,250.48,80,243.69,80Z"/><path d="M109,193.24c0,4.41,3,8.3,7.75,9.93l49.85,17.18a30.52,30.52,0,0,0,19.8,0l49.85-17.18c4.73-1.63,7.77-5.52,7.75-9.93s-3.1-8.27-7.84-9.86l-18.76-6.31a5.4,5.4,0,0,0-6.64,2.53c-1,2.28.28,4.85,2.92,5.74l18.76,6.31a1.68,1.68,0,0,1,0,3.27L182.6,212.1a18.75,18.75,0,0,1-12.2,0l-49.86-17.18a1.68,1.68,0,0,1,0-3.27l50-16.8a18.8,18.8,0,0,1,11.95,0l9.17,3.08a5.41,5.41,0,0,0,6.64-2.53c1-2.28-.29-4.86-2.93-5.74l-9.16-3.08a30.6,30.6,0,0,0-19.38,0l-50,16.8c-4.74,1.59-7.82,5.46-7.84,9.86Z"/><path d="M176.18,48c-2.84,0-5.15,2-5.15,4.37v7.47l-3.18-2.79a5.81,5.81,0,0,0-7.29-.09,3.92,3.92,0,0,0-.1,6.18l12,10.53A5.62,5.62,0,0,0,176.18,75h0a5.6,5.6,0,0,0,3.71-1.38L191.6,63.09a3.92,3.92,0,0,0-.22-6.18,5.81,5.81,0,0,0-7.28.19l-2.77,2.49V52.37C181.33,50,179,48,176.18,48Z"/><path d="M243.69,0H108.31C101.52,0,96,4.73,96,10.55v23.9C96,40.27,101.52,45,108.31,45H243.69C250.48,45,256,40.27,256,34.45V10.55C256,4.73,250.48,0,243.69,0Zm2,34.45a1.91,1.91,0,0,1-2,1.74H108.31a1.91,1.91,0,0,1-2-1.74V10.55a1.91,1.91,0,0,1,2-1.74H243.69a1.91,1.91,0,0,1,2,1.74Z"/></g></g></svg>