<svg xmlns="http://www.w3.org/2000/svg" xmlns:xlink="http://www.w3.org/1999/xlink" viewBox="0 0 513.07 513"><defs><style>.cls-1{fill:none;}.cls-1,.cls-3{stroke:#000;stroke-miterlimit:10;}.cls-2{clip-path:url(#clip-path);}</style><clipPath id="clip-path"><rect class="cls-1" x="0.5" y="0.5" width="512" height="512"/></clipPath></defs><title>computer</title><g id="Layer_2" data-name="Layer 2"><g id="Layer_1-2" data-name="Layer 1"><g class="cls-2"><path class="cls-3" d="M55.76,29.26a22,22,0,1,0,22,22A22,22,0,0,0,55.76,29.26Zm0,29a7,7,0,1,1,7-7A7,7,0,0,1,55.76,58.25Z"/><path class="cls-3" d="M111.75,29.26a22,22,0,1,0,22,22A22,22,0,0,0,111.75,29.26Zm0,29a7,7,0,1,1,7-7A7,7,0,0,1,111.75,58.25Z"/><path class="cls-3" d="M167.73,29.26a22,22,0,1,0,22,22A22,22,0,0,0,167.73,29.26Zm0,29a7,7,0,1,1,7-7A7,7,0,0,1,167.73,58.25Z"/><path class="cls-3" d="M504.5,148.9a7.5,7.5,0,0,0,7.5-7.5l.57-107.46A33,33,0,0,0,479.62,1H34A33,33,0,0,0,1,34V396.06A32.93,32.93,0,0,0,34,429H180v27H157.37A27.36,27.36,0,0,0,130,483.37v20.76a7.87,7.87,0,0,0,7.87,7.87h41.92a4.82,4.82,0,0,0,3.76-1.76c5-6.24.69-13.24-5.29-13.24H145V483.38A12.38,12.38,0,0,1,157.38,471H356.62A12.38,12.38,0,0,1,369,483.38V497H225a7.66,7.66,0,0,0-7.57,5.87,7.51,7.51,0,0,0,7.33,9.13H371.51A12.49,12.49,0,0,0,384,499.51V483.37A27.36,27.36,0,0,0,356.63,456H334V429H479a33,33,0,0,0,33-33V187.48a7.61,7.61,0,0,0-5.83-7.53,7.51,7.51,0,0,0-9.17,7.31V353H263V103H497v38.4a7.5,7.5,0,0,0,7.5,7.5ZM16,103H248V353H16ZM319,456H195V429H319Zm178-88v28.17a17.92,17.92,0,0,1-16.14,17.74c-.61.06-1.21.09-1.83.09H34c-.63,0-1.24,0-1.84-.09A17.92,17.92,0,0,1,16,396.17V368ZM255.23,88H16V34A18,18,0,0,1,34,16H479a18,18,0,0,1,18,18V88Z"/><path class="cls-3" d="M47.39,132.5H85.18a7.63,7.63,0,0,0,7.53-5.83,7.51,7.51,0,0,0-7.32-9.17H47.63a7.66,7.66,0,0,0-7.58,5.87A7.51,7.51,0,0,0,47.39,132.5Z"/><path class="cls-3" d="M111.34,132.5h17.79a7.63,7.63,0,0,0,7.53-5.83,7.51,7.51,0,0,0-7.32-9.17H111.58a7.64,7.64,0,0,0-7.57,5.87A7.51,7.51,0,0,0,111.34,132.5Z"/><path class="cls-3" d="M104.36,143.5H79.59a7.63,7.63,0,0,0-7.54,5.83,7.51,7.51,0,0,0,7.32,9.17h24.75a7.64,7.64,0,0,0,7.57-5.87A7.51,7.51,0,0,0,104.36,143.5Z"/><path class="cls-3" d="M222.26,171.5H197.47a7.63,7.63,0,0,0-7.53,5.83,7.51,7.51,0,0,0,7.32,9.17H222a7.64,7.64,0,0,0,7.57-5.86A7.51,7.51,0,0,0,222.26,171.5Z"/><path class="cls-3" d="M127.55,158.5h59.51a7.64,7.64,0,0,0,7.57-5.87,7.51,7.51,0,0,0-7.33-9.13h-60a7.51,7.51,0,0,0-7.33,9.13A7.65,7.65,0,0,0,127.55,158.5Z"/><path class="cls-3" d="M103.56,186.5h12.57a7.63,7.63,0,0,0,7.54-5.83,7.51,7.51,0,0,0-7.32-9.17h-13A7.5,7.5,0,0,0,96,180.67,7.63,7.63,0,0,0,103.56,186.5Z"/><path class="cls-3" d="M174.31,186.5a7.51,7.51,0,0,0,7.32-9.17,7.63,7.63,0,0,0-7.53-5.83H138.52a7.63,7.63,0,0,0-7.54,5.83,7.52,7.52,0,0,0,7.33,9.17Z"/><path class="cls-3" d="M85.17,268.5H47.6a7.64,7.64,0,0,0-7.54,5.83,7.52,7.52,0,0,0,7.33,9.17h38a7.51,7.51,0,0,0,7.32-9.17A7.63,7.63,0,0,0,85.17,268.5Z"/><path class="cls-3" d="M111.34,268.5a7.51,7.51,0,0,0-7.33,9.13,7.64,7.64,0,0,0,7.57,5.87H129.1a7.64,7.64,0,0,0,7.57-5.87,7.51,7.51,0,0,0-7.33-9.13Z"/><path class="cls-3" d="M104.12,294.5H79.61A7.65,7.65,0,0,0,72,300.37a7.51,7.51,0,0,0,7.33,9.13h25a7.51,7.51,0,0,0,7.33-9.13A7.64,7.64,0,0,0,104.12,294.5Z"/><path class="cls-3" d="M116.35,322.5H103.56A7.63,7.63,0,0,0,96,328.33a7.52,7.52,0,0,0,7.33,9.17h12.76a7.66,7.66,0,0,0,7.57-5.87A7.51,7.51,0,0,0,116.35,322.5Z"/><path class="cls-3" d="M222.26,322.5H197.47a7.61,7.61,0,0,0-7.53,5.83,7.5,7.5,0,0,0,7.32,9.17H222a7.65,7.65,0,0,0,7.57-5.87A7.51,7.51,0,0,0,222.26,322.5Z"/><path class="cls-3" d="M187.06,294.5H127.55a7.66,7.66,0,0,0-7.57,5.87,7.51,7.51,0,0,0,7.33,9.13h60a7.51,7.51,0,0,0,7.33-9.13A7.64,7.64,0,0,0,187.06,294.5Z"/><path class="cls-3" d="M174.31,322.5H138.52a7.63,7.63,0,0,0-7.54,5.83,7.51,7.51,0,0,0,7.32,9.17h35.77a7.64,7.64,0,0,0,7.57-5.87A7.51,7.51,0,0,0,174.31,322.5Z"/><path class="cls-3" d="M47.4,220.5H68.15a7.66,7.66,0,0,0,7.58-5.87,7.51,7.51,0,0,0-7.33-9.13H47.61a7.63,7.63,0,0,0-7.54,5.83A7.52,7.52,0,0,0,47.4,220.5Z"/><path class="cls-3" d="M166.09,205.5H89.54A7.63,7.63,0,0,0,82,211.33a7.51,7.51,0,0,0,7.32,9.17h77a7.5,7.5,0,0,0,7.32-9.14A7.65,7.65,0,0,0,166.09,205.5Z"/><path class="cls-3" d="M152.09,231.5H79.6A7.66,7.66,0,0,0,72,237.37a7.51,7.51,0,0,0,7.33,9.13h73a7.5,7.5,0,0,0,7.32-9.13A7.64,7.64,0,0,0,152.09,231.5Z"/><path class="cls-3" d="M173.29,246.5h13.77a7.63,7.63,0,0,0,7.54-5.83,7.51,7.51,0,0,0-7.32-9.17H173.53a7.65,7.65,0,0,0-7.57,5.87A7.51,7.51,0,0,0,173.29,246.5Z"/><path class="cls-3" d="M343.54,290.5H295.78a7.64,7.64,0,0,0-7.57,5.87,7.5,7.5,0,0,0,7.33,9.13h47.79a7.63,7.63,0,0,0,7.53-5.83A7.51,7.51,0,0,0,343.54,290.5Z"/><path class="cls-3" d="M465.45,290.5H370.69a7.64,7.64,0,0,0-7.57,5.87,7.5,7.5,0,0,0,7.32,9.13h94.8a7.63,7.63,0,0,0,7.54-5.83A7.52,7.52,0,0,0,465.45,290.5Z"/><path class="cls-3" d="M343.54,319.5H295.76a7.63,7.63,0,0,0-7.54,5.83,7.51,7.51,0,0,0,7.32,9.17h47.75a7.66,7.66,0,0,0,7.58-5.87A7.51,7.51,0,0,0,343.54,319.5Z"/><path class="cls-3" d="M465.44,319.5H370.68a7.63,7.63,0,0,0-7.54,5.83,7.5,7.5,0,0,0,7.31,9.17H465.2a7.64,7.64,0,0,0,7.57-5.87A7.51,7.51,0,0,0,465.44,319.5Z"/><path class="cls-3" d="M453.14,117.5H306.86a19.36,19.36,0,0,0-19.36,19.36V238.37h0v17.76a19.36,19.36,0,0,0,19.36,19.36H453.14a19.36,19.36,0,0,0,19.36-19.36V136.86A19.36,19.36,0,0,0,453.14,117.5Zm0,143H306.88a4.38,4.38,0,0,1-4.38-4.37V241.48l54.77-54.86,37.8,42.69a7.49,7.49,0,1,0,11.19-9.95l-3.43-3.87,16.9-16.93,37.77,42.66v14.91A4.37,4.37,0,0,1,453.13,260.5Zm4.37-41.87-28.78-32.5a11.83,11.83,0,0,0-17.23-.51l-18.61,18.63-26.62-30.06a11.84,11.84,0,0,0-17.23-.52L302.5,220.28v-83.4a4.38,4.38,0,0,1,4.38-4.38H453.13a4.38,4.38,0,0,1,4.37,4.38Z"/></g><rect class="cls-1" x="0.5" y="0.5" width="512" height="512"/></g></g></svg>