<svg xmlns="http://www.w3.org/2000/svg" viewBox="0 0 512 512"><title>facebook</title><g id="Layer_2" data-name="Layer 2"><g id="Layer_1-2" data-name="Layer 1"><path d="M328.4,175.14h25.28a18.88,18.88,0,0,0,18.86-18.86V108.57a18.88,18.88,0,0,0-18.86-18.85H321.45a107.94,107.94,0,0,0-72.19,27.62,7.5,7.5,0,1,0,10,11.17,93,93,0,0,1,62.18-23.79h32.23a3.86,3.86,0,0,1,3.86,3.85v47.71a3.86,3.86,0,0,1-3.86,3.86H328.4a44.73,44.73,0,0,0-44.69,44.68v42.09a7.5,7.5,0,0,0,7.5,7.5h62.47a3.86,3.86,0,0,1,3.86,3.86V306a3.86,3.86,0,0,1-3.86,3.86H291.21a7.5,7.5,0,0,0-7.5,7.5v74.61a7.5,7.5,0,0,0,15,0V324.83h55A18.88,18.88,0,0,0,372.54,306v-47.7a18.88,18.88,0,0,0-18.86-18.86h-55V204.82A29.72,29.72,0,0,1,328.4,175.14Z"/><path d="M474.5,0H37.5A37.54,37.54,0,0,0,0,37.5V231.74a7.5,7.5,0,0,0,15,0V37.5A22.52,22.52,0,0,1,37.5,15h437A22.52,22.52,0,0,1,497,37.5v437A22.52,22.52,0,0,1,474.5,497H298.71V426.46a7.5,7.5,0,0,0-15,0V497H228.29V317.33a7.5,7.5,0,0,0-7.5-7.5H158.32a3.86,3.86,0,0,1-3.86-3.86v-47.7a3.86,3.86,0,0,1,3.86-3.86h62.47a7.5,7.5,0,0,0,7.5-7.5v-49a93.35,93.35,0,0,1,11.07-44.09,7.5,7.5,0,0,0-13.21-7.11,108.43,108.43,0,0,0-12.86,51.19v41.54h-55a18.87,18.87,0,0,0-18.86,18.86V306a18.88,18.88,0,0,0,18.86,18.86h55V497H37.5A22.52,22.52,0,0,1,15,474.5V266.26a7.5,7.5,0,0,0-15,0V474.5A37.54,37.54,0,0,0,37.5,512h437A37.54,37.54,0,0,0,512,474.5V37.5A37.54,37.54,0,0,0,474.5,0Z"/></g></g></svg>