<svg xmlns="http://www.w3.org/2000/svg" viewBox="0 0 512 512"><title>puzzle</title><g id="Layer_2" data-name="Layer 2"><g id="Layer_1-2" data-name="Layer 1"><path d="M225,357h-5V307a15,15,0,0,0-15-15H140a15,15,0,0,0-15,15v18.3c0,8.79-6.36,16.27-14.17,16.68A15,15,0,0,1,95,327V307a15,15,0,0,0-15-15H15A15,15,0,0,0,0,307V457a55.06,55.06,0,0,0,55,55H205a15,15,0,0,0,15-15V447h5a45,45,0,0,0,0-90Zm0,60H205a15,15,0,0,0-15,15v50H55a25,25,0,0,1-25-25V322H65v5a45.16,45.16,0,0,0,14,32.64,44.57,44.57,0,0,0,33.37,12.3c23.89-1.25,42.6-21.74,42.6-46.64V322h35v50a15,15,0,0,0,15,15h20a15,15,0,0,1,0,30Z"/><path d="M512,55A55.06,55.06,0,0,0,457,0H157a55.06,55.06,0,0,0-55,55V205a15,15,0,0,0,15,15h50v5a45,45,0,0,0,90,0v-5h35v50a15,15,0,0,0,15,15h18.3c8.79,0,16.27,6.36,16.68,14.17A15,15,0,0,1,327,315H307a15,15,0,0,0-15,15v65a15,15,0,0,0,15,15H457a55.06,55.06,0,0,0,55-55ZM322,80V30H457a25,25,0,0,1,25,25V190H447v-5a45.16,45.16,0,0,0-14-32.64,44.63,44.63,0,0,0-33.37-12.3C375.71,141.31,357,161.8,357,186.7V190H322V140a15,15,0,0,0-15-15H288.7c-8.79,0-16.27-6.36-16.68-14.17A15,15,0,0,1,287,95h20a15,15,0,0,0,15-15ZM242,190a15,15,0,0,0-15,15v20a15,15,0,0,1-30,0V205a15,15,0,0,0-15-15H132V55a25,25,0,0,1,25-25H292V65h-5a45.16,45.16,0,0,0-32.64,14,44.61,44.61,0,0,0-12.3,33.37c1.25,23.89,21.74,42.6,46.64,42.6H292v35ZM457,380H322V345h5a45.16,45.16,0,0,0,32.64-14,44.61,44.61,0,0,0,12.3-33.37C370.69,273.71,350.2,255,325.3,255H322V220h50a15,15,0,0,0,15-15V186.7c0-8.79,6.36-16.27,14.17-16.68A15,15,0,0,1,417,185v20a15,15,0,0,0,15,15h50V355A25,25,0,0,1,457,380Z"/></g></g></svg>