<svg xmlns="http://www.w3.org/2000/svg" viewBox="0 0 512 512"><title>repair</title><g id="Layer_2" data-name="Layer 2"><g id="Layer_1-2" data-name="Layer 1"><path d="M65.14,31.3A23.74,23.74,0,1,0,88.87,55,23.77,23.77,0,0,0,65.14,31.3Zm0,32.32A8.59,8.59,0,1,1,73.72,55,8.59,8.59,0,0,1,65.14,63.62Z"/><path d="M128.76,31.3A23.74,23.74,0,1,0,152.49,55,23.77,23.77,0,0,0,128.76,31.3Zm0,32.32A8.59,8.59,0,1,1,137.34,55,8.59,8.59,0,0,1,128.76,63.62Z"/><path d="M192.38,31.3A23.74,23.74,0,1,0,216.11,55,23.76,23.76,0,0,0,192.38,31.3Zm0,32.32A8.59,8.59,0,1,1,201,55,8.59,8.59,0,0,1,192.38,63.62Z"/><path d="M484.23,0H27.77A27.8,27.8,0,0,0,0,27.77V362A27.8,27.8,0,0,0,27.77,389.8H76.63a7.57,7.57,0,0,0,.62,10l36.39,36.39a154.8,154.8,0,0,0-7.15,17.23H55A7.58,7.58,0,0,0,47.46,461v43.43A7.58,7.58,0,0,0,55,512H204.5a7.57,7.57,0,0,0,7.57-7.57,41.91,41.91,0,0,1,83.82,0,7.57,7.57,0,0,0,7.57,7.57H452.92a7.57,7.57,0,0,0,7.58-7.57V461a7.57,7.57,0,0,0-7.58-7.57H401.46a154.73,154.73,0,0,0-7.14-17.23l36.39-36.39a7.57,7.57,0,0,0,.62-10h52.9A27.8,27.8,0,0,0,512,362V174.66a7.58,7.58,0,0,0-15.15,0V362a12.63,12.63,0,0,1-12.62,12.62h-68L371.63,330V278.21a7.58,7.58,0,0,0-7.58-7.57H350.42V224l10.69-9.87a7.58,7.58,0,0,0,2.1-7.81L345,147.72a7.57,7.57,0,0,0-7.23-5.33H317.6a7.59,7.59,0,0,0-7.24,5.33l-18.17,58.57a7.56,7.56,0,0,0,2.1,7.81L305,224v46.67H291.34a7.57,7.57,0,0,0-7.57,7.57v19.7H224.19V286.4l29.08-29.08a7.54,7.54,0,0,0,2.22-5.36V189.85a7.6,7.6,0,0,0-2.25-5.39l-40.39-39.89A7.58,7.58,0,0,0,200,150v67.52l-19.69,12.4-19.69-12.4v-4.32a7.58,7.58,0,0,0-15.15,0v8.5a7.55,7.55,0,0,0,3.54,6.41l27.26,17.17a7.58,7.58,0,0,0,8.07,0l27.27-17.17a7.58,7.58,0,0,0,3.54-6.41V168.09L240.34,193v55.8l-29.08,29.09a7.57,7.57,0,0,0-2.22,5.36v14.79a7.57,7.57,0,0,0-6.06,7.42v51.46a154.73,154.73,0,0,0-17.23,7.14L151.48,329.8V283.27a7.57,7.57,0,0,0-2.22-5.36l-29.09-29.09V193l25.25-24.93v9.6a7.58,7.58,0,1,0,15.15,0V150a7.58,7.58,0,0,0-12.9-5.39l-40.4,39.89a7.6,7.6,0,0,0-2.25,5.39V252a7.58,7.58,0,0,0,2.22,5.36l29.09,29.08V330L91.69,374.66H27.77A12.63,12.63,0,0,1,15.15,362v-252h481.7v29.31a7.58,7.58,0,0,0,15.15,0V27.77A27.8,27.8,0,0,0,484.23,0ZM317.69,215.09l-9.62-8.88,15.11-48.67h9l15.1,48.67-9.61,8.88a7.58,7.58,0,0,0-2.44,5.57v50H320.13v-50a7.58,7.58,0,0,0-2.44-5.57Zm38.79,70.7v44L322.2,364.08A155.7,155.7,0,0,0,305,356.94V305.48a7.58,7.58,0,0,0-6.06-7.42V285.79ZM187.85,380a140.66,140.66,0,0,1,24.92-10.33,7.58,7.58,0,0,0,5.36-7.25V313.05h71.7v49.38a7.58,7.58,0,0,0,5.36,7.25A140.66,140.66,0,0,1,320.11,380a7.55,7.55,0,0,0,8.91-1.33L364,343.76l43.82,43.83h0l6.87,6.87-34.93,34.92a7.6,7.6,0,0,0-1.33,8.92,139.86,139.86,0,0,1,10.34,24.91,7.56,7.56,0,0,0,7.24,5.36h49.38v28.28h-77a114.67,114.67,0,0,0-161-97.17,7.58,7.58,0,0,0,6.17,13.84,99.52,99.52,0,0,1,139.61,83.33H310.54a57.06,57.06,0,0,0-113.11,0H154.79a98.42,98.42,0,0,1,31.16-65,7.57,7.57,0,1,0-10.36-11.05,115.05,115.05,0,0,0-36,76.05h-77V468.57H112a7.56,7.56,0,0,0,7.24-5.36,140.6,140.6,0,0,1,10.34-24.91,7.6,7.6,0,0,0-1.33-8.92L93.31,394.46l6.87-6.87h0L144,343.76l34.93,34.92a7.55,7.55,0,0,0,8.91,1.33ZM15.15,94.93V27.77A12.63,12.63,0,0,1,27.77,15.15H484.23a12.63,12.63,0,0,1,12.62,12.62V94.93Z"/></g></g></svg>