<svg xmlns="http://www.w3.org/2000/svg" viewBox="0 0 289.62 512"><title>tie</title><g id="Layer_2" data-name="Layer 2"><g id="Layer_1-2" data-name="Layer 1"><path d="M287.43,24.35,265.27,2.2A7.44,7.44,0,0,0,260,0H29.65a7.44,7.44,0,0,0-5.3,2.2L2.2,24.35a7.5,7.5,0,0,0,0,10.57l82.45,83.6,36.17,46.64L96.18,342.33a7.5,7.5,0,0,0,6.39,8.46,7.41,7.41,0,0,0,1.05.07,7.49,7.49,0,0,0,7.41-6.47l24.15-173.83h19.26l6.91,49.71a7.5,7.5,0,0,0,14.85-2.06l-7.36-53.05L205,118.51l82.45-83.59a7.5,7.5,0,0,0,0-10.57Zm-62.89,8H128.26a7.5,7.5,0,1,0,0,15h81.28L182.11,74.75h-74.6L80.08,47.33H93.24a7.5,7.5,0,0,0,0-15H65.08L47.76,15h194.1ZM29.65,18.11,95.44,83.89l-7.51,16.63L18.07,29.69ZM157.3,155.57h-25L99,112.54l10.29-22.79h71.13l10.29,22.79Zm44.4-55-7.51-16.63L260,18.11l11.58,11.58Z"/><path d="M181,253a7.5,7.5,0,1,0-14.85,2.06l27.21,196-48.59,43.39L96.22,451.06l10-71.91a7.5,7.5,0,1,0-14.86-2.06L80.81,453a7.51,7.51,0,0,0,2.44,6.63l56.57,50.51a7.52,7.52,0,0,0,10,0l56.57-50.51a7.53,7.53,0,0,0,2.43-6.63Z"/></g></g></svg>