<svg xmlns="http://www.w3.org/2000/svg" viewBox="0 0 362.5 512"><title>ux</title><g id="Layer_2" data-name="Layer 2"><g id="Layer_1-2" data-name="Layer 1"><path d="M185.29,45.89a10.11,10.11,0,1,0-10.1-10.1A10.1,10.1,0,0,0,185.29,45.89Z"/><path d="M212.56,43.28H252a7.5,7.5,0,0,0,0-15h-39.4a7.5,7.5,0,0,0,0,15Z"/><path d="M58,147.48a7.5,7.5,0,0,0-7.5,7.5V235.8a27.74,27.74,0,0,0,27.7,27.7H98.42a27.74,27.74,0,0,0,27.7-27.7V155a7.5,7.5,0,0,0-15,0V235.8a12.72,12.72,0,0,1-12.7,12.7H78.21a12.72,12.72,0,0,1-12.7-12.7V155a7.5,7.5,0,0,0-7.5-7.5Z"/><path d="M155.17,262.43A7.37,7.37,0,0,0,159,263.5a7.51,7.51,0,0,0,6.44-3.64l23.87-39.79,23.87,39.79a7.51,7.51,0,0,0,6.44,3.64,7.5,7.5,0,0,0,6.42-11.36l-28-46.65,28-46.65a7.5,7.5,0,1,0-12.86-7.71l-23.87,39.78-23.87-39.78a7.5,7.5,0,0,0-12.87,7.71l28,46.65-28,46.65a7.5,7.5,0,0,0,2.58,10.29Z"/><path d="M118.62,374.77a7.5,7.5,0,0,0-7.5,7.5v40.41a7.5,7.5,0,0,0,7.5,7.5H159a7.5,7.5,0,0,0,7.5-7.5V382.27a7.5,7.5,0,0,0-7.5-7.5Zm32.9,40.41h-25.4V389.77h25.4Z"/><path d="M233.78,374.77H193.37a7.5,7.5,0,0,0-7.5,7.5v40.41a7.5,7.5,0,0,0,7.5,7.5h40.41a7.5,7.5,0,0,0,7.5-7.5V382.27A7.5,7.5,0,0,0,233.78,374.77Zm-7.5,40.41H200.87V389.77h25.41Z"/><path d="M268.12,374.77a7.5,7.5,0,0,0-7.5,7.5v40.41a7.5,7.5,0,0,0,7.5,7.5h40.41a7.5,7.5,0,0,0,7.5-7.5V382.27a7.5,7.5,0,0,0-7.5-7.5ZM301,415.18H275.62V389.77H301Z"/><path d="M362.5,474.2a7.49,7.49,0,0,0-.33-2.19V155.58a7.5,7.5,0,1,0-15,0V466.7H79.32v-101a7.5,7.5,0,0,0-15,0V504.5a7.5,7.5,0,0,0,7.5,7.5H354.67a7.5,7.5,0,0,0,7.5-7.5V476.38A7.52,7.52,0,0,0,362.5,474.2ZM79.32,497V481.7H347.17V497Z"/><path d="M64.33,330.44a7.5,7.5,0,0,0,15,0V293.8H186.22l48.31,48.32a7.54,7.54,0,0,0,5.31,2.19,7.38,7.38,0,0,0,2.87-.57,7.5,7.5,0,0,0,4.63-6.93v-43h2.6a27.73,27.73,0,0,0,27.7-27.71V144.88a27.73,27.73,0,0,0-27.7-27.7H156.75a7.5,7.5,0,0,0,0,15h93.19a12.72,12.72,0,0,1,12.7,12.7V266.1a12.71,12.71,0,0,1-12.7,12.7h-10.1a7.5,7.5,0,0,0-7.5,7.5v32.41L194.63,281a7.47,7.47,0,0,0-5.3-2.2H27.7A12.71,12.71,0,0,1,15,266.1V144.88a12.72,12.72,0,0,1,12.7-12.7h94.13a7.5,7.5,0,1,0,0-15H79.33V45.31h57.83l7.31,16.08a27.76,27.76,0,0,0,25.22,16.24h87.12A27.78,27.78,0,0,0,282,61.39l7.31-16.08h57.83v75.16a7.5,7.5,0,0,0,15,0V7.5a7.5,7.5,0,0,0-7.5-7.5H71.83a7.5,7.5,0,0,0-7.5,7.5V117.18H27.7A27.74,27.74,0,0,0,0,144.88V266.1a27.73,27.73,0,0,0,27.7,27.7H64.33ZM347.17,15V30.31H284.51a7.5,7.5,0,0,0-6.83,4.39l-9.31,20.48a12.73,12.73,0,0,1-11.56,7.45H169.69a12.71,12.71,0,0,1-11.56-7.45L148.82,34.7A7.5,7.5,0,0,0,142,30.31H79.33V15Z"/></g></g></svg>